<?xml version="1.0" encoding="utf-8"?>
<!-- Generator: Adobe Illustrator 21.0.2, SVG Export Plug-In . SVG Version: 6.00 Build 0)  -->
<svg version="1.1" id="Layer_1" xmlns="http://www.w3.org/2000/svg" xmlns:xlink="http://www.w3.org/1999/xlink" x="0px" y="0px"
	 viewBox="0 0 720 720" style="enable-background:new 0 0 720 720;" xml:space="preserve">
<style type="text/css">
	.st0{fill:#654335;}
	.st1{fill:#EB733A;}
</style>
<g>
	<path class="st0" d="M362.3,562.1c-8,0-14.6-6.6-14.6-14.6c0-8,6.6-14.6,14.6-14.6c52.5,0,94.8-42.3,94.8-94.3
		s-42.6-94.3-94.8-94.3s-94.8,42.3-94.8,94.3c0,8-6.6,14.6-14.6,14.6c-8,0-14.6-6.6-14.6-14.6c0-68.3,55.9-123.5,124.3-123.5
		s124.3,55.4,124.3,123.5C486.6,506.7,430.7,562.1,362.3,562.1z"/>
	<path class="st0" d="M360.4,633.1c-107,0-193.8-87.1-193.8-193.8s87.1-193.8,193.8-193.8c8.8,0,15.8,7.3,15.8,15.8
		c0,8.8-7.3,15.8-15.8,15.8c-89.5,0-162.2,72.7-162.2,162.2s72.7,162.2,162.2,162.2s162.2-72.7,162.2-162.2
		c0-8.8,7.3-15.8,15.8-15.8c8.8,0,15.8,7.3,15.8,15.8C554.2,546.1,467.1,633.1,360.4,633.1z"/>
	<g>
		<path class="st1" d="M603.6,441c-4.1-0.5-8.5,0.7-11.7,3.4c-3.4,2.7-5.3,6.3-5.8,10.7c-7.1,61.5-31.9,113.8-71.7,151.7
			C473.7,645,420.2,665,359.9,665C235.9,665,135,564.5,135,441c0-31.1,6.3-61.5,18.7-89.7c10.7-30.9,54.7-83.7,54.7-83.7l0,0
			c23.3-34,51.1-74.2,58.6-107.7c8.5,7.8,16.5,16.3,24.3,25.3c3.6,3.9,8.8,6.1,14.1,5.1c5.3-0.7,10-4.1,12.2-9
			c1.7-3.9,3.6-7.8,5.6-11.9c17.3-36.5,33.3-71.2,35.5-103.3c27.5,15.3,51.3,36.7,69.8,62.7c23.1,32.8,34.5,68.3,32.1,100.4
			c-0.5,4.1,1,8.5,3.9,11.7c2.9,3.2,6.6,5.1,10.7,5.3c4.1,0.5,8.5-1,11.7-3.9c3.2-2.9,5.1-6.6,5.6-10.7
			c3.2-39.4-10.5-82.4-37.9-121.3c-27.2-38.4-65.7-68.6-108-85.1c-5.6-2.2-11.9-1-16.3,2.9c-4.4,3.9-6.3,10-4.9,15.8
			c7.3,27.2-8.5,63.7-26.5,102.4c-10.9-10.9-22.9-21.2-35.5-31.1c-5.1-3.9-11.9-4.1-17.3-1.5c-5.3,2.9-8.8,8.8-8.3,15.1
			c2.9,36.7-25,77.1-54.5,119.9c-3.9,5.8-7.8,12.2-12.2,18c-40.1,50.6-68.3,108.9-68.3,173.6c0,141,115.3,255.6,256.8,255.6
			c68.8,0,129.9-23.1,176.3-66.9c44.5-42.1,72.5-101.2,80.5-170.9C617.4,449.3,611.8,442,603.6,441z"/>
	</g>
</g>
</svg>
