<?xml version="1.0" encoding="utf-8"?>
<!-- Generator: Adobe Illustrator 21.0.2, SVG Export Plug-In . SVG Version: 6.00 Build 0)  -->
<svg version="1.1" id="Layer_1" xmlns="http://www.w3.org/2000/svg" xmlns:xlink="http://www.w3.org/1999/xlink" x="0px" y="0px"
	 viewBox="0 0 711.6 388.1" style="enable-background:new 0 0 711.6 388.1;" xml:space="preserve">
<style type="text/css">
	.st0{fill:#644234;}
	.st1{fill:#EB733B;}
</style>
<g>
	<path class="st0" d="M147.8,277.1c-3.3,0-6-2.7-6-6c0-3.3,2.7-6,6-6c21.6,0,39-17.4,39-38.8s-17.5-38.8-39-38.8s-39,17.4-39,38.8
		c0,3.3-2.7,6-6,6s-6-2.7-6-6c0-28.1,23-50.8,51.1-50.8s51.1,22.8,51.1,50.8C198.9,254.3,175.9,277.1,147.8,277.1z"/>
	<path class="st0" d="M147,306.3c-44,0-79.7-35.8-79.7-79.7s35.8-79.7,79.7-79.7c3.6,0,6.5,3,6.5,6.5c0,3.6-3,6.5-6.5,6.5
		c-36.8,0-66.7,29.9-66.7,66.7s29.9,66.7,66.7,66.7s66.7-29.9,66.7-66.7c0-3.6,3-6.5,6.5-6.5c3.6,0,6.5,3,6.5,6.5
		C226.7,270.5,190.9,306.3,147,306.3z"/>
	<g>
		<path class="st1" d="M247,227.3c-1.7-0.2-3.5,0.3-4.8,1.4c-1.4,1.1-2.2,2.6-2.4,4.4c-2.9,25.3-13.1,46.8-29.5,62.4
			c-16.7,15.7-38.7,23.9-63.5,23.9c-51,0-92.5-41.3-92.5-92.1c0-12.8,2.6-25.3,7.7-36.9c4.4-12.7,22.5-34.4,22.5-34.4l0,0
			c9.6-14,21-30.5,24.1-44.3c3.5,3.2,6.8,6.7,10,10.4c1.5,1.6,3.6,2.5,5.8,2.1c2.2-0.3,4.1-1.7,5-3.7c0.7-1.6,1.5-3.2,2.3-4.9
			c7.1-15,13.7-29.3,14.6-42.5c11.3,6.3,21.1,15.1,28.7,25.8c9.5,13.5,14.2,28.1,13.2,41.3c-0.2,1.7,0.4,3.5,1.6,4.8
			c1.2,1.3,2.7,2.1,4.4,2.2c1.7,0.2,3.5-0.4,4.8-1.6c1.3-1.2,2.1-2.7,2.3-4.4c1.3-16.2-4.3-33.9-15.6-49.9
			c-11.2-15.8-27-28.2-44.4-35c-2.3-0.9-4.9-0.4-6.7,1.2c-1.8,1.6-2.6,4.1-2,6.5c3,11.2-3.5,26.2-10.9,42.1
			c-4.5-4.5-9.4-8.7-14.6-12.8c-2.1-1.6-4.9-1.7-7.1-0.6c-2.2,1.2-3.6,3.6-3.4,6.2c1.2,15.1-10.3,31.7-22.4,49.3
			c-1.6,2.4-3.2,5-5,7.4c-16.5,20.8-28.1,44.8-28.1,71.4c0,58,47.4,105.1,105.6,105.1c28.3,0,53.4-9.5,72.5-27.5
			c18.3-17.3,29.8-41.6,33.1-70.3C252.7,230.7,250.4,227.7,247,227.3z"/>
	</g>
</g>
<g>
	<path class="st0" d="M265.8,165.7h15.3v52.9h31.4v10.9h-46.7V165.7z"/>
	<path class="st0" d="M341.9,229.8c-3-0.5-6.1-1.2-9.3-2.4c-3.5-1.2-6.2-3.1-8.2-5.8c-2-2.7-3-5.9-3-9.7v-27.9c0-3.1,0.7-6,2.1-8.5
		c1.4-2.5,3.2-4.5,5.5-5.9c2-1.2,4.4-2.3,7.3-3.1c2.9-0.8,5.6-1.4,8.1-1.6c2.3-0.2,4.7-0.3,7.3-0.3c3,0,5.6,0.1,7.9,0.3
		c2.2,0.2,4.7,0.7,7.5,1.4c3.2,0.9,5.7,2,7.8,3.3c2,1.3,3.7,3.1,5.1,5.5c1.4,2.4,2.2,5.3,2.2,8.8V212c0,3.5-0.9,6.6-2.8,9.1
		c-1.9,2.6-4.4,4.5-7.7,5.8c-5.9,2.4-12.5,3.5-19.9,3.5C348.2,230.5,344.9,230.3,341.9,229.8z M357.4,219.3c1.5-0.2,3-0.5,4.6-0.9
		c1.6-0.5,2.8-1.2,3.6-2.3c0.8-1.1,1.2-2.4,1.2-4.1v-28c0-3-1.2-5.2-3.6-6.4c-2.4-1.3-6.2-1.9-11.3-1.9c-5.1,0-8.9,0.6-11.3,1.9
		c-2.4,1.2-3.6,3.4-3.6,6.5v28c0,1.6,0.4,3,1.3,4.1c0.8,1.1,2.1,1.9,3.7,2.3c1.6,0.5,3.1,0.8,4.6,0.9c1.5,0.2,3.3,0.2,5.5,0.2
		C354.1,219.6,355.9,219.5,357.4,219.3z"/>
	<path class="st0" d="M415.1,230c-2.8-0.3-5.6-0.9-8.4-1.7c-2.9-0.8-5.4-1.9-7.3-3.2c-1.9-1.3-3.4-3.1-4.6-5.3
		c-1.2-2.3-1.8-4.9-1.8-7.9v-26.6c0-3.2,0.7-6.1,2-8.7c1.3-2.6,3.1-4.6,5.3-6.1c2.1-1.4,4.6-2.6,7.5-3.5c2.9-1,5.8-1.6,8.6-2
		c2.4-0.3,5.2-0.4,8.6-0.4c9,0,17.7,0.7,26,2.1v11.6c-7.6-1.8-16.3-2.8-26-2.8c-11.1,0-16.6,3.2-16.6,9.6v25.7
		c0,3.1,1.5,5.4,4.5,6.7c3,1.3,7.5,2,13.5,2c3.2,0,6.7-0.5,10.3-1.5v-14.9h-10.4v-10h25.1v33.1c-3.3,1.2-7.5,2.2-12.5,2.9
		c-5.1,0.8-9.7,1.2-14,1.2C421.2,230.5,418,230.3,415.1,230z"/>
	<path class="st0" d="M484.5,230c-2.8-0.3-5.6-0.9-8.4-1.7c-2.9-0.8-5.4-1.9-7.3-3.2c-1.9-1.3-3.4-3.1-4.6-5.3
		c-1.2-2.3-1.8-4.9-1.8-7.9v-26.6c0-3.2,0.7-6.1,2-8.7c1.3-2.6,3.1-4.6,5.3-6.1c2.1-1.4,4.6-2.6,7.5-3.5c2.9-1,5.8-1.6,8.6-2
		c2.4-0.3,5.2-0.4,8.6-0.4c9,0,17.7,0.7,26,2.1v11.6c-7.6-1.8-16.3-2.8-26-2.8c-11.1,0-16.6,3.2-16.6,9.6v25.7
		c0,3.1,1.5,5.4,4.5,6.7c3,1.3,7.5,2,13.5,2c3.2,0,6.7-0.5,10.3-1.5v-14.9h-10.4v-10h25.1v33.1c-3.3,1.2-7.5,2.2-12.5,2.9
		c-5.1,0.8-9.7,1.2-14,1.2C490.5,230.5,487.3,230.3,484.5,230z"/>
	<path class="st0" d="M533.2,165.7h15.3v52.9h31.4v10.9h-46.7V165.7z"/>
	<path class="st0" d="M590.2,165.7h15.3v63.8h-15.3V165.7z"/>
	<path class="st0" d="M634.1,176.6h-19.7v-10.9H669v10.9h-19.6v52.9h-15.3V176.6z"/>
</g>
</svg>
