<?xml version="1.0" encoding="utf-8"?>
<!-- Generator: Adobe Illustrator 21.0.2, SVG Export Plug-In . SVG Version: 6.00 Build 0)  -->
<svg version="1.1" id="Layer_1" xmlns="http://www.w3.org/2000/svg" xmlns:xlink="http://www.w3.org/1999/xlink" x="0px" y="0px"
	 viewBox="0 0 139.1 43" style="enable-background:new 0 0 139.1 43;" xml:space="preserve">
<style type="text/css">
	.st0{fill:#EC733B;}
	.st1{fill:#FFFFFF;}
</style>
<title>logbin</title>
<path class="st0" d="M55.3,15h4.9v10.7h6.1v4h-11V15z"/>
<path class="st0" d="M76.6,18.8c0.9,0.4,1.7,1.2,2.3,2.1c1.1,1.9,1.1,4.3,0,6.2c-0.5,0.9-1.3,1.6-2.3,2.1c-2.2,1-4.7,1-6.8,0
	c-0.9-0.5-1.7-1.2-2.3-2.1c-1.1-1.9-1.1-4.3,0-6.2c0.5-0.9,1.3-1.6,2.3-2.1C72,17.8,74.5,17.8,76.6,18.8z M72,22.4
	c-0.6,1-0.6,2.2,0,3.2c0.5,0.7,1.5,0.8,2.2,0.3c0.1-0.1,0.2-0.2,0.3-0.3c0.6-1,0.6-2.2,0-3.2c-0.5-0.7-1.5-0.8-2.2-0.3
	C72.2,22.2,72.1,22.3,72,22.4z"/>
<path class="st0" d="M92.6,18.2v10.5c0,1-0.3,1.9-0.8,2.8c-0.6,0.8-1.3,1.4-2.3,1.8c-1.1,0.4-2.2,0.7-3.3,0.6c-1,0-2-0.1-3-0.4
	c-0.8-0.2-1.7-0.6-2.4-1.1l1.5-3.2c0.5,0.3,1.1,0.6,1.7,0.7c0.6,0.2,1.2,0.3,1.8,0.3c0.6,0,1.1-0.1,1.6-0.4c0.4-0.2,0.6-0.6,0.6-1.1
	v-1.1c-0.7,0.8-1.8,1.3-2.9,1.2c-0.9,0-1.7-0.2-2.4-0.7c-0.7-0.5-1.3-1.1-1.7-1.9c-0.4-0.9-0.6-1.9-0.6-2.9c0-1,0.2-1.9,0.6-2.8
	c0.4-0.8,0.9-1.4,1.6-1.9c0.7-0.5,1.6-0.7,2.5-0.7c1.1,0,2.2,0.4,3,1.2v-1.1H92.6z M87.5,25.1c0.3-0.4,0.5-1,0.4-1.5
	c0-0.5-0.1-1.1-0.4-1.5c-0.5-0.6-1.4-0.8-2.1-0.2c-0.1,0.1-0.2,0.2-0.2,0.2c-0.3,0.4-0.5,1-0.4,1.5c0,0.5,0.1,1.1,0.4,1.5
	c0.5,0.6,1.4,0.8,2,0.3C87.3,25.3,87.4,25.2,87.5,25.1z"/>
<path class="st1" d="M105.3,15.5c0.8,0.2,1.5,0.7,2.1,1.3c0.5,0.5,0.7,1.2,0.7,2c0,0.7-0.3,1.4-0.7,1.9c-0.5,0.6-1.1,1-1.8,1.2
	c0.8,0.2,1.6,0.6,2.1,1.3c0.5,0.7,0.8,1.5,0.8,2.4c0,0.8-0.2,1.6-0.7,2.2c-0.5,0.7-1.3,1.2-2.1,1.4c-1,0.4-2.1,0.5-3.1,0.5h-7.8V15
	h7.4C103.3,15,104.3,15.1,105.3,15.5z M102.7,20.4c0.2-0.2,0.3-0.5,0.3-0.8c0-0.3-0.1-0.5-0.3-0.7c-0.2-0.2-0.5-0.3-0.8-0.3h-2.3
	v2.1h2.3C102.2,20.7,102.5,20.6,102.7,20.4L102.7,20.4z M103.1,25.8c0.3-0.2,0.4-0.5,0.4-0.9c0-0.3-0.2-0.6-0.4-0.8
	c-0.3-0.2-0.7-0.3-1.1-0.3h-2.4v2.2h2.3C102.4,26.1,102.7,26,103.1,25.8z"/>
<path class="st1" d="M114.1,13.2c1,0.9,1.1,2.6,0.1,3.6c-0.9,1-2.6,1.1-3.6,0.1c-1-0.9-1.1-2.6-0.1-3.6c0.5-0.5,1.2-0.8,1.9-0.8
	C113,12.5,113.6,12.8,114.1,13.2z M110.1,18.2h4.7v11.5h-4.7V18.2z"/>
<path class="st1" d="M127.4,18.6c0.6,0.4,1.1,0.9,1.5,1.5c0.4,0.7,0.5,1.5,0.5,2.3v7.3h-4.7v-6c0-0.4-0.1-0.8-0.4-1.1
	c-0.2-0.3-0.6-0.4-1-0.4c-0.4,0-0.8,0.2-1.1,0.5c-0.3,0.4-0.4,0.9-0.4,1.3v5.7h-4.7V18.2h4.7v1.6c0.4-0.6,0.9-1.1,1.5-1.4
	c0.6-0.3,1.3-0.5,2-0.5C126,18,126.8,18.2,127.4,18.6z"/>
<circle class="st0" cx="28.2" cy="21.5" r="18.5"/>
<path class="st1" d="M32.9,18h-1.4v1.4c0,1-0.8,1.7-1.7,1.7h-3.1c-1,0-1.7-0.8-1.7-1.7V18h-1.4l-0.9,4.3h11.1L32.9,18z"/>
<path class="st1" d="M25.8,18v1.4c0,0.5,0.4,0.9,0.9,0.9h3.1c0.5,0,0.9-0.4,0.9-0.9V18H25.8z"/>
<polygon class="st1" points="22.6,23.1 23.4,32.4 32.9,32.4 33.8,23.1 "/>
<path class="st1" d="M27.5,7.7v6l-1.9-1.9c-0.2-0.2-0.5-0.2-0.7,0l-0.3,0.3c-0.2,0.2-0.2,0.5,0,0.7l3.3,3.3c0.2,0.2,0.5,0.2,0.7,0
	l3.3-3.2c0.2-0.2,0.2-0.5,0-0.7l-0.3-0.3c-0.1-0.1-0.2-0.1-0.4-0.1c-0.1,0-0.3,0.1-0.3,0.1l-1.9,1.9V7.7c0-0.3-0.2-0.5-0.5-0.5H28
	C27.7,7.2,27.5,7.5,27.5,7.7z"/>
</svg>
