<?xml version="1.0" encoding="utf-8"?>
<!-- Generator: Adobe Illustrator 21.0.2, SVG Export Plug-In . SVG Version: 6.00 Build 0)  -->
<svg version="1.1" id="Layer_1" xmlns="http://www.w3.org/2000/svg" xmlns:xlink="http://www.w3.org/1999/xlink" x="0px" y="0px"
	 viewBox="0 0 156.6 153.3" style="enable-background:new 0 0 156.6 153.3;" xml:space="preserve">
<style type="text/css">
	.st0{fill:#EC733B;}
	.st1{fill:#FFFFFF;}
</style>
<title>logbin</title>
<circle class="st0" cx="30.2" cy="71.1" r="19.1"/>
<path class="st1" d="M35,67.5h-1.5v1.4c0,1-0.8,1.8-1.8,1.8h-3.2c-1,0-1.8-0.8-1.8-1.8v-1.4h-1.5l-0.9,4.4h11.5L35,67.5z"/>
<path class="st1" d="M27.7,67.5v1.4c0,0.5,0.4,0.9,0.9,0.9h3.2c0.5,0,0.9-0.4,0.9-0.9v-1.4H27.7z"/>
<polygon class="st1" points="24.4,72.8 25.3,82.3 35.1,82.3 35.9,72.8 "/>
<path class="st1" d="M29.5,56.9v6.2l-2-2c-0.2-0.2-0.5-0.2-0.7,0l-0.3,0.3c-0.2,0.2-0.2,0.5,0,0.7l3.4,3.4c0.2,0.2,0.5,0.2,0.7,0
	l3.4-3.3c0.2-0.2,0.2-0.5,0-0.7l-0.3-0.3c-0.1-0.1-0.2-0.2-0.4-0.2c-0.1,0-0.3,0.1-0.4,0.2l-2,2v-6.3c0-0.3-0.2-0.5-0.5-0.5H30
	C29.7,56.4,29.5,56.6,29.5,56.9z"/>
<path class="st0" d="M56.1,64.5H61v10.6h6.1v4h-11V64.5z"/>
<path class="st0" d="M77.5,68.3c0.9,0.4,1.7,1.2,2.3,2c1.1,1.9,1.1,4.3,0,6.2c-0.5,0.9-1.3,1.6-2.3,2.1c-2.2,1-4.7,1-6.8,0
	c-0.9-0.4-1.7-1.2-2.3-2.1c-1.1-1.9-1.1-4.3,0-6.2c0.5-0.9,1.3-1.6,2.3-2C72.8,67.4,75.3,67.4,77.5,68.3z M72.8,71.9
	c-0.6,1-0.6,2.2,0,3.2c0.5,0.7,1.5,0.8,2.2,0.3c0.1-0.1,0.2-0.2,0.3-0.3c0.6-1,0.6-2.2,0-3.2c-0.5-0.7-1.5-0.8-2.2-0.3
	C73,71.7,72.9,71.8,72.8,71.9z"/>
<path class="st0" d="M93.5,67.8v10.5c0,1-0.3,1.9-0.8,2.8c-0.6,0.8-1.4,1.4-2.3,1.8c-1.1,0.4-2.2,0.7-3.3,0.6c-1,0-2-0.1-3-0.4
	c-0.8-0.2-1.7-0.6-2.4-1.1l1.5-3.2c0.5,0.3,1.1,0.6,1.7,0.7c0.6,0.2,1.2,0.3,1.8,0.3c0.6,0,1.1-0.1,1.6-0.4c0.4-0.2,0.6-0.6,0.6-1.1
	v-1.1c-0.7,0.8-1.8,1.3-2.9,1.2c-0.9,0-1.7-0.2-2.5-0.7c-0.7-0.5-1.3-1.1-1.7-1.9C81.3,75,81.1,74,81.2,73c0-1,0.2-1.9,0.6-2.8
	c0.4-0.8,1-1.4,1.7-1.9c0.7-0.5,1.5-0.7,2.4-0.7c1.1,0,2.2,0.4,2.9,1.2v-1.1L93.5,67.8z M88.3,74.7c0.3-0.4,0.5-1,0.4-1.5
	c0-0.5-0.1-1.1-0.4-1.5c-0.5-0.6-1.4-0.8-2.1-0.3c-0.1,0.1-0.2,0.2-0.3,0.3c-0.3,0.4-0.5,1-0.4,1.5c0,0.5,0.1,1.1,0.4,1.5
	c0.5,0.6,1.4,0.8,2,0.3C88.2,74.9,88.3,74.8,88.3,74.7L88.3,74.7z"/>
<path class="st0" d="M107.2,67.8v10.5c0,1-0.3,1.9-0.8,2.8c-0.6,0.8-1.4,1.4-2.3,1.8c-1.1,0.4-2.2,0.7-3.3,0.6c-1,0-2-0.1-3-0.4
	c-0.8-0.2-1.7-0.6-2.4-1.1l1.5-3.2c0.5,0.3,1.1,0.6,1.7,0.7c0.6,0.2,1.2,0.3,1.8,0.3c0.6,0,1.1-0.1,1.6-0.4c0.4-0.2,0.6-0.6,0.6-1.1
	v-1.1c-0.7,0.8-1.8,1.3-2.9,1.2c-0.9,0-1.7-0.2-2.4-0.7c-0.7-0.5-1.3-1.1-1.7-1.9C95,75,94.8,74,94.9,73c0-1,0.2-1.9,0.6-2.8
	c0.4-0.8,0.9-1.4,1.6-1.9c0.7-0.5,1.5-0.7,2.4-0.7c1.1,0,2.2,0.4,3,1.2v-1.1L107.2,67.8z M102,74.7c0.3-0.4,0.5-1,0.4-1.5
	c0-0.5-0.1-1.1-0.4-1.5c-0.5-0.6-1.4-0.8-2.1-0.3c-0.1,0.1-0.2,0.2-0.3,0.3c-0.3,0.4-0.5,1-0.4,1.5c0,0.5,0.1,1.1,0.4,1.5
	c0.5,0.6,1.4,0.8,2,0.3C101.9,74.9,102,74.8,102,74.7L102,74.7z"/>
<path class="st1" d="M119.8,65c0.8,0.2,1.5,0.7,2,1.3c0.5,0.5,0.7,1.2,0.7,1.9c0,0.7-0.2,1.4-0.7,2c-0.4,0.6-1.1,1-1.8,1.2
	c0.8,0.2,1.6,0.6,2.1,1.3c0.5,0.7,0.8,1.5,0.8,2.4c0,0.8-0.3,1.6-0.7,2.2c-0.5,0.7-1.3,1.2-2.1,1.4c-1,0.4-2.1,0.5-3.1,0.5h-7.8
	V64.5h7.4C117.8,64.5,118.8,64.7,119.8,65z M117.3,69.9c0.2-0.2,0.3-0.5,0.3-0.8c0-0.3-0.1-0.6-0.3-0.7c-0.2-0.2-0.5-0.3-0.8-0.3
	h-2.3v2.1h2.3C116.8,70.2,117.1,70.1,117.3,69.9L117.3,69.9z M117.5,75.3c0.3-0.2,0.4-0.5,0.4-0.9c0-0.3-0.1-0.6-0.4-0.8
	c-0.3-0.2-0.7-0.3-1.1-0.3h-2.3v2.2h2.3C116.8,75.7,117.2,75.6,117.5,75.3z"/>
<path class="st1" d="M128.6,62.8c1,0.9,1.1,2.5,0.1,3.6c-0.9,1-2.5,1.1-3.6,0.1c-1-0.9-1.1-2.5-0.1-3.6c0.5-0.5,1.2-0.8,1.9-0.8
	C127.5,62.1,128.1,62.3,128.6,62.8z M124.6,67.8h4.7v11.5h-4.7V67.8z"/>
<path class="st1" d="M141.9,68.1c0.6,0.4,1.1,0.9,1.5,1.5c0.4,0.7,0.5,1.5,0.5,2.3v7.3h-4.7v-5.9c0-0.4-0.1-0.8-0.4-1.1
	c-0.2-0.3-0.6-0.4-1-0.4c-0.4,0-0.8,0.2-1.1,0.5c-0.3,0.4-0.4,0.9-0.4,1.3v5.7h-4.7V67.8h4.7v1.6c0.4-0.6,0.9-1.1,1.5-1.4
	c0.6-0.3,1.3-0.5,2-0.5C140.5,67.6,141.3,67.7,141.9,68.1z"/>
</svg>
